{
    "asset" : {
        "generator" : "Khronos glTF Blender I/O v1.0.5",
        "version" : "2.0"
    },
    "scene" : 0,
    "scenes" : [
        {
            "name" : "Scene",
            "nodes" : [
                0
            ]
        }
    ],
    "nodes" : [
        {
            "mesh" : 0,
            "name" : "af1",
            "rotation" : [
                0.7071068286895752,
                0,
                0,
                0.7071067094802856
            ]
        }
    ],
    "materials" : [
        {
            "doubleSided" : true,
            "name" : "AF1_Rough_UV_OBJ_Ver2:Default_OBJ_004",
            "occlusionTexture" : {
                "index" : 0,
                "texCoord" : 0
            },
            "pbrMetallicRoughness" : {
                "baseColorFactor" : [
                    0.800000011920929,
                    0.800000011920929,
                    0.800000011920929,
                    1
                ],
                "metallicFactor" : 0,
                "roughnessFactor" : 0.5
            }
        }
    ],
    "meshes" : [
        {
            "name" : "af1",
            "primitives" : [
                {
                    "attributes" : {
                        "POSITION" : 0,
                        "NORMAL" : 1,
                        "TEXCOORD_0" : 2
                    },
                    "indices" : 3,
                    "material" : 0
                }
            ]
        }
    ],
    "textures" : [
        {
            "source" : 0
        }
    ],
    "images" : [
        {
            "bufferView" : 4,
            "mimeType" : "image/png",
            "name" : "fake"
        }
    ],
    "accessors" : [
        {
            "bufferView" : 0,
            "componentType" : 5126,
            "count" : 18772,
            "max" : [
                2.4297618865966797,
                7.119501113891602,
                0.15028700232505798
            ],
            "min" : [
                -2.6553521156311035,
                -7.155786037445068,
                -6.462717056274414
            ],
            "type" : "VEC3"
        },
        {
            "bufferView" : 1,
            "componentType" : 5126,
            "count" : 18772,
            "type" : "VEC3"
        },
        {
            "bufferView" : 2,
            "componentType" : 5126,
            "count" : 18772,
            "type" : "VEC2"
        },
        {
            "bufferView" : 3,
            "componentType" : 5123,
            "count" : 105096,
            "type" : "SCALAR"
        }
    ],
    "bufferViews" : [
        {
            "buffer" : 0,
            "byteLength" : 225264,
            "byteOffset" : 0
        },
        {
            "buffer" : 0,
            "byteLength" : 225264,
            "byteOffset" : 225264
        },
        {
            "buffer" : 0,
            "byteLength" : 150176,
            "byteOffset" : 450528
        },
        {
            "buffer" : 0,
            "byteLength" : 210192,
            "byteOffset" : 600704
        },
        {
            "buffer" : 0,
            "byteLength" : 20566,
            "byteOffset" : 810896
        }
    ],
    "buffers" : [
        {
            "byteLength" : 831464,
            "uri" : "data:application/octet-stream;base64,"
        }
    ]
}
